<?xml version="1.0" encoding="UTF-8" standalone="no"?>
<!-- Created with Inkscape (http://www.inkscape.org/) -->

<svg
   version="1.1"
   id="svg1"
   width="6125.3335"
   height="5226.9731"
   viewBox="0 0 6125.3335 5226.9731"
   sodipodi:docname="vecteezy_lcd-tv-monitor-computer-monitor-display-isolated-on-white_22011417.eps"
   xmlns:inkscape="http://www.inkscape.org/namespaces/inkscape"
   xmlns:sodipodi="http://sodipodi.sourceforge.net/DTD/sodipodi-0.dtd"
   xmlns="http://www.w3.org/2000/svg"
   xmlns:svg="http://www.w3.org/2000/svg">
  <defs
     id="defs1" />
  <sodipodi:namedview
     id="namedview1"
     pagecolor="#ffffff"
     bordercolor="#000000"
     borderopacity="0.25"
     inkscape:showpageshadow="2"
     inkscape:pageopacity="0.0"
     inkscape:pagecheckerboard="0"
     inkscape:deskcolor="#d1d1d1">
    <inkscape:page
       x="0"
       y="0"
       inkscape:label="1"
       id="page1"
       width="6125.3335"
       height="5226.9731"
       margin="0"
       bleed="0" />
  </sodipodi:namedview>
  <g
     id="g1"
     inkscape:groupmode="layer"
     inkscape:label="1">
    <g
       id="group-R5">
      <path
         id="path2"
         d="m 44388.7,10517.8 c 0,-857.9 -698,-1555.9 -1555.9,-1555.9 H 3107.21 c -857.95,0 -1555.94,698 -1555.94,1555.9 v 25577.3 c 0,857.9 697.99,1555.9 1555.94,1555.9 H 42832.8 c 857.9,0 1555.9,-698 1555.9,-1555.9 z M 42832.8,39202.3 H 3107.21 C 1393.89,39202.3 0,37808.4 0,36095.1 V 10517.8 C 0,8804.5 1393.89,7410.6 3107.21,7410.6 H 18465.7 V 2336.3 h -4494.9 c -645.2,0 -1168.2,-523 -1168.2,-1168.1 C 12802.6,523 13325.6,0 13970.8,0 h 17998.4 c 645.2,0 1168.2,523 1168.2,1168.2 0,645.1 -523,1168.1 -1168.2,1168.1 h -4494.9 v 5074.3 h 15358.5 c 1713.3,0 3107.2,1393.9 3107.2,3107.2 v 25577.3 c 0,1713.3 -1393.9,3107.2 -3107.2,3107.2"
         style="fill:#100f0d;fill-opacity:1;fill-rule:nonzero;stroke:none"
         transform="matrix(0.13333333,0,0,-0.13333333,0,5226.9733)" />
    </g>
  </g>
</svg>
